<svg id="Layer_11" data-name="Layer 11" xmlns="http://www.w3.org/2000/svg" xmlns:xlink="http://www.w3.org/1999/xlink" viewBox="0 0 2880 2223.36"><defs><style>.cls-1{fill:url(#linear-gradient);}.cls-2{fill:url(#linear-gradient-2);}.cls-3{fill:url(#linear-gradient-3);}.cls-4{fill:url(#linear-gradient-4);}.cls-5{fill:url(#linear-gradient-5);}.cls-6{fill:url(#linear-gradient-6);}.cls-7{fill:url(#linear-gradient-7);}.cls-8{fill:url(#linear-gradient-8);}.cls-9{fill:url(#linear-gradient-9);}.cls-10{fill:url(#linear-gradient-10);}.cls-11{fill:url(#linear-gradient-11);}.cls-12{fill:url(#linear-gradient-12);}.cls-13{fill:url(#linear-gradient-13);}.cls-14{fill:url(#linear-gradient-14);}.cls-15{fill:url(#linear-gradient-15);}.cls-16{fill:url(#linear-gradient-16);}.cls-17{fill:url(#linear-gradient-17);}.cls-18{fill:url(#linear-gradient-18);}.cls-19{fill:url(#linear-gradient-19);}.cls-20{fill:url(#linear-gradient-20);}.cls-21{fill:url(#linear-gradient-21);}.cls-22{fill:url(#linear-gradient-22);}.cls-23{fill:url(#linear-gradient-23);}.cls-24{fill:url(#linear-gradient-24);}.cls-25{fill:url(#linear-gradient-25);}.cls-26{fill:url(#linear-gradient-26);}.cls-27{fill:url(#linear-gradient-27);}.cls-28{fill:url(#linear-gradient-28);}.cls-29{fill:url(#linear-gradient-29);}.cls-30{fill:url(#linear-gradient-30);}.cls-31{fill:url(#linear-gradient-31);}.cls-32{fill:url(#linear-gradient-32);}.cls-33{fill:url(#linear-gradient-33);}.cls-34{fill:url(#linear-gradient-34);}.cls-35{fill:url(#linear-gradient-35);}.cls-36{fill:url(#linear-gradient-36);}.cls-37{fill:url(#linear-gradient-37);}.cls-38{fill:url(#linear-gradient-38);}.cls-39{fill:url(#linear-gradient-39);}.cls-40{opacity:0.5;}</style><linearGradient id="linear-gradient" x1="1330.49" y1="1157.92" x2="1860.26" y2="1157.92" gradientUnits="userSpaceOnUse"><stop offset="0.3" stop-color="#c601ff"/><stop offset="0.36" stop-color="#cc08e5"/><stop offset="0.5" stop-color="#db1aa2"/><stop offset="0.71" stop-color="#f23839"/><stop offset="0.81" stop-color="#ff4701"/></linearGradient><linearGradient id="linear-gradient-2" x1="1632.72" y1="1427.92" x2="1760.96" y2="1427.92" xlink:href="#linear-gradient"/><linearGradient id="linear-gradient-3" x1="1629.73" y1="967.29" x2="2009.67" y2="967.29" xlink:href="#linear-gradient"/><linearGradient id="linear-gradient-4" x1="1835.44" y1="1187.22" x2="2159.5" y2="1187.22" xlink:href="#linear-gradient"/><linearGradient id="linear-gradient-5" x1="772.58" y1="1402.87" x2="960.27" y2="1402.87" xlink:href="#linear-gradient"/><linearGradient id="linear-gradient-6" x1="1149.19" y1="1160.87" x2="2280.69" y2="1160.87" xlink:href="#linear-gradient"/><linearGradient id="linear-gradient-7" x1="788.39" y1="1418.13" x2="959.27" y2="1418.13" xlink:href="#linear-gradient"/><linearGradient id="linear-gradient-8" x1="1834.44" y1="1187.07" x2="2183.4" y2="1187.07" xlink:href="#linear-gradient"/><linearGradient id="linear-gradient-9" x1="987.31" y1="1556" x2="1134.67" y2="1556" xlink:href="#linear-gradient"/><linearGradient id="linear-gradient-10" x1="1758.3" y1="1556" x2="1905.65" y2="1556" xlink:href="#linear-gradient"/><linearGradient id="linear-gradient-11" x1="703.8" y1="1556.01" x2="2133.98" y2="1556.01" xlink:href="#linear-gradient"/><linearGradient id="linear-gradient-12" x1="658.65" y1="420.69" x2="1493.33" y2="420.69" xlink:href="#linear-gradient"/><linearGradient id="linear-gradient-13" x1="505.77" y1="1512.07" x2="2341.38" y2="1512.07" xlink:href="#linear-gradient"/><linearGradient id="linear-gradient-14" x1="1765.41" y1="201.31" x2="1875.75" y2="201.31" xlink:href="#linear-gradient"/><linearGradient id="linear-gradient-15" x1="1864.75" y1="245.52" x2="1947.49" y2="245.52" xlink:href="#linear-gradient"/><linearGradient id="linear-gradient-16" x1="1940.95" y1="255.44" x2="2005.14" y2="255.44" xlink:href="#linear-gradient"/><linearGradient id="linear-gradient-17" x1="1973.08" y1="271.67" x2="2040.81" y2="271.67" xlink:href="#linear-gradient"/><linearGradient id="linear-gradient-18" x1="2014.83" y1="318.71" x2="2099.71" y2="318.71" xlink:href="#linear-gradient"/><linearGradient id="linear-gradient-19" x1="2091.99" y1="369.37" x2="2175.81" y2="369.37" xlink:href="#linear-gradient"/><linearGradient id="linear-gradient-20" x1="2154.29" y1="394.04" x2="2230.71" y2="394.04" xlink:href="#linear-gradient"/><linearGradient id="linear-gradient-21" x1="2223.54" y1="454.96" x2="2350.56" y2="454.96" xlink:href="#linear-gradient"/><linearGradient id="linear-gradient-22" x1="2273.49" y1="550.54" x2="2371.39" y2="550.54" xlink:href="#linear-gradient"/><linearGradient id="linear-gradient-23" x1="2316.15" y1="621.93" x2="2422.62" y2="621.93" xlink:href="#linear-gradient"/><linearGradient id="linear-gradient-24" x1="2388.97" y1="753.47" x2="2506.97" y2="753.47" xlink:href="#linear-gradient"/><linearGradient id="linear-gradient-25" x1="2418.79" y1="851.02" x2="2511.04" y2="851.02" xlink:href="#linear-gradient"/><linearGradient id="linear-gradient-26" x1="2437.49" y1="919.98" x2="2524.83" y2="919.98" xlink:href="#linear-gradient"/><linearGradient id="linear-gradient-27" x1="2447.18" y1="995.59" x2="2531.94" y2="995.59" xlink:href="#linear-gradient"/><linearGradient id="linear-gradient-28" x1="2455.91" y1="1061.16" x2="2567.77" y2="1061.16" xlink:href="#linear-gradient"/><linearGradient id="linear-gradient-29" x1="2456" y1="1128.82" x2="2537.04" y2="1128.82" xlink:href="#linear-gradient"/><linearGradient id="linear-gradient-30" x1="2443.75" y1="1223.06" x2="2530.35" y2="1223.06" xlink:href="#linear-gradient"/><linearGradient id="linear-gradient-31" x1="2436.21" y1="1293" x2="2549.62" y2="1293" xlink:href="#linear-gradient"/><linearGradient id="linear-gradient-32" x1="903.36" y1="1328.51" x2="1142.9" y2="1328.51" xlink:href="#linear-gradient"/><linearGradient id="linear-gradient-33" x1="740.56" y1="1230.52" x2="1069.7" y2="1230.52" xlink:href="#linear-gradient"/><linearGradient id="linear-gradient-34" x1="634.1" y1="1108.32" x2="983.73" y2="1108.32" xlink:href="#linear-gradient"/><linearGradient id="linear-gradient-35" x1="554.33" y1="980.12" x2="927.54" y2="980.12" xlink:href="#linear-gradient"/><linearGradient id="linear-gradient-36" x1="854.81" y1="1081.54" x2="1312.07" y2="1081.54" xlink:href="#linear-gradient"/><linearGradient id="linear-gradient-37" x1="856.53" y1="1166.47" x2="1529.01" y2="1166.47" xlink:href="#linear-gradient"/><linearGradient id="linear-gradient-38" x1="513.29" y1="696.32" x2="975.04" y2="696.32" xlink:href="#linear-gradient"/><linearGradient id="linear-gradient-39" x1="478.28" y1="844.07" x2="906.71" y2="844.07" xlink:href="#linear-gradient"/></defs><title>cyclogos_7.25.22</title><polygon class="cls-1" points="1860.26 1159.68 1526.81 823.23 1330.98 823.23 1330.49 823.73 1663.46 1159.68 1333.48 1492.61 1530.29 1492.61 1860.26 1159.68"/><polygon class="cls-2" points="1760.96 1363.22 1681.93 1492.62 1632.72 1492.62 1760.96 1363.22"/><polygon class="cls-3" points="1888.72 1085.03 1629.73 823.72 1630.22 823.24 1826.05 823.24 1963.76 962.18 2009.67 1008.5 1977.62 1008.5 1914.8 1111.35 1888.72 1085.03"/><path class="cls-4" d="M2159.5,1159.68l-22.91,23.11a102.85,102.85,0,0,0-6.33-30c-14.87-39.09-53.39-60.63-108.47-60.63h-12.38l-116.08,190.05,145.88-1.11-42.15,42.53-148.81,1.13h-.16c-5.85,0-10.15-2.46-11.85-6.81s-.62-10.27,3-16.21L1867,1256.2l95.67-96.52L1940,1136.75l41.34-67.68c6.69-10.94,20.17-19.34,31.07-19.34H2044q3.35,0,6.61.09Z"/><path class="cls-5" d="M956.46,1321.21,847.18,1500.13h60l-7.35,7.42H772.58c11.3-4.77,22.41-7.36,32.43-7.41h0l111.53-182.61c7.12-11.65,21.82-20.27,32.85-19.26S963.58,1309.56,956.46,1321.21Z"/><path class="cls-6" d="M2276.2,1172.17c-7.93,41.23-26,85-53.78,130l-120.27,195.15-14,22.69c-6.62,10.76-19.84,18.92-30.53,19.17h-1c-.46,0-.91,0-1.35-.08-11-1-14.19-11.19-7.06-22.74l11.82-19.18,122.42-198.66c47.74-77.47,62.41-150.14,41.3-204.61-21-54.16-74.95-84-152-84h-66.68a51.15,51.15,0,0,0-43.53,24.3l-47.84,77.63L1760,1361.51l-79,128.24-4.59,7.45L1662.27,1520c-6.73,10.92-20.27,19.17-31,19.17a18.2,18.2,0,0,1-1.82-.08c-11-1-14.18-11.19-7.06-22.74l11.82-19.18,4.59-7.45,11.32-18.37,164.52-267,34.05-55.25,39.06-63.38,60.81-98.68L1962.76,964l37.92-61.54c21-34.07-3.52-78-43.53-78H1289.27a51.15,51.15,0,0,0-43.53,24.3l-16.57,26.9-36.26,58.84c-7.12,11.55-21.83,20.11-32.85,19.09s-14.18-11.19-7.06-22.74l50.08-81.28,29.54-47.93c6.69-10.85,20.18-19.18,31.07-19.18l766.6,11.24c10.18,1.09,31.27,6.59,40.56,14.06,8,6.46,13.44,28.06,5.83,39.74L2050.54,890c-21,34.07,3.52,78,43.53,78h0c44.85,0,83,8.79,113.42,26.12,29.46,16.79,50.42,40.84,62.29,71.49S2283.87,1132.21,2276.2,1172.17Z"/><path class="cls-7" d="M955.46,1319.87,846.18,1497.2l-4.53,7.35L832.11,1520c-6.63,10.76-19.85,18.92-30.53,19.17h-1c-.46,0-.91,0-1.36-.07-11-1-14.18-11.2-7.06-22.75l7.29-11.83,4.52-7.34h0l111.53-181c7.12-11.55,21.82-20.09,32.85-19.09S962.58,1308.32,955.46,1319.87Z"/><path class="cls-8" d="M2175.26,1124.59c-17.65-46-62.14-72-125.64-73.7q-3.27-.09-6.61-.09h-31.62c-10.9,0-24.38,8.33-31.07,19.17L1939,1137.05l-73,118.39-27.78,45.08c-3.63,5.89-4.73,11.72-3,16.07s6,6.75,11.85,6.75h.16l148.81-1.12,112.6-.85c10.87-.09,24.25-8.39,30.9-19.18C2180.83,1235.22,2193.51,1172.15,2175.26,1124.59Zm-64.74,154.93-72.31.55-145.88,1.1,116.08-188.37h12.38c55.08,0,93.6,21.35,108.47,60.1a101.06,101.06,0,0,1,6.33,29.78C2137.47,1211.36,2128.94,1244.5,2110.52,1279.52Z"/><path class="cls-9" d="M1132.49,1511.73a27.55,27.55,0,0,0-4.09-7.18c-6.16-7.8-16.57-12-30.13-12s-28.89,4.21-44.23,12c-3.54,1.8-7.09,3.79-10.61,6-18.71,11.58-34.65,27.09-44.86,43.66-10.67,17.31-13.89,33.68-9.08,46.1s17,19.19,34.22,19.19c16.62,0,36.1-6.38,54.84-18a149.42,149.42,0,0,0,25.61-20,124.7,124.7,0,0,0,19.25-23.7C1134.08,1540.53,1137.3,1524.15,1132.49,1511.73Zm-49,42.45c-7.78,12.63-25,23.29-37.57,23.29-5.36,0-9.07-2-10.46-5.57s-.34-8.63,3-14.06c7.78-12.63,25-23.3,37.57-23.3,5.36,0,9.07,2,10.46,5.57S1086.85,1548.74,1083.5,1554.18Z"/><path class="cls-10" d="M1903.47,1511.73c-4.8-12.37-17-19.19-34.22-19.19-16.62,0-36.1,6.39-54.84,18s-34.64,27.09-44.86,43.66c-10.66,17.31-13.89,33.68-9.08,46.1s17,19.19,34.22,19.19c16.63,0,36.1-6.38,54.84-18s34.65-27.08,44.86-43.65C1905.06,1540.53,1908.28,1524.15,1903.47,1511.73Zm-49,42.45c-7.78,12.63-25,23.29-37.57,23.29-5.35,0-9.07-2-10.46-5.57s-.34-8.63,3-14.06c7.78-12.63,25-23.3,37.57-23.3,5.36,0,9.07,2,10.46,5.57S1857.83,1548.74,1854.48,1554.18Z"/><path class="cls-11" d="M2132,1515c-4.08-10.53-13.88-16.73-27.81-17.7-1.28-.09-2.61-.14-4-.14h-92c3.11-17.34,2.07-33.29-3.28-47.1-11.14-28.73-39.55-44.56-80-44.56-3.44,0-6.94.12-10.48.34-37.48,2.42-80.2,17.52-121.59,43.13a365.22,365.22,0,0,0-54,40.74q-4,3.68-7.92,7.45H1237.16a97.54,97.54,0,0,0,.92-30.7,73.66,73.66,0,0,0-4.21-16.4c-11.13-28.73-39.54-44.56-80-44.56-19.43,0-40.54,3.67-62.32,10.68-22.89,7.37-46.53,18.43-69.74,32.79a363.56,363.56,0,0,0-61.93,48.19H806c-10,0-21.13,2.61-32.43,7.34a128.9,128.9,0,0,0-17.9,9.28c-17.28,10.7-32,25-41.44,40.35-9.9,16.06-12.89,31.26-8.42,42.8s15.74,17.83,31.77,17.83H888.82c-3.11,17.34-2.07,33.3,3.28,47.11,11.14,28.73,39.55,44.56,80,44.56,39.87,0,86.77-15.44,132.07-43.47a364.58,364.58,0,0,0,61.94-48.2h493.7c-3.11,17.34-2.06,33.3,3.29,47.11,11.13,28.73,39.54,44.56,80,44.56,39.87,0,86.77-15.44,132.07-43.47a364.19,364.19,0,0,0,61.94-48.2h94.3c15.39,0,33.4-5.9,50.72-16.62s32-25,41.44-40.35C2133.44,1541.77,2136.43,1526.58,2132,1515Zm-944.51,7a.19.19,0,0,1,0,.07c-.1.34-.21.69-.32,1,0,0,0,.1,0,.14a141.77,141.77,0,0,1-14.57,30.85,210.23,210.23,0,0,1-23.76,31.24l-1.39,1.53a.28.28,0,0,0-.09.1c-41.63,44.81-103.6,77.43-153,77.43-28.53,0-48.5-11-56.23-30.94-4.78-12.35-4.56-27.27.45-43.61.11-.36.21-.71.33-1.07v0s0-.09,0-.14a141.71,141.71,0,0,1,14.57-30.84,210.77,210.77,0,0,1,23.88-31.37.28.28,0,0,1,.09-.1c.39-.43.78-.87,1.18-1.3l0,0a264.18,264.18,0,0,1,36.79-32.71c36.82-27.15,79.93-44.78,116.21-44.78,28.53,0,48.5,11,56.23,30.94a56.74,56.74,0,0,1,3.13,26.07A87.5,87.5,0,0,1,1187.45,1522.09Zm770.8.58c-.06.22-.13.44-.2.66a141.77,141.77,0,0,1-14.57,30.85,210.23,210.23,0,0,1-23.76,31.24l-1.39,1.53a.43.43,0,0,0-.09.1c-41.63,44.81-103.6,77.43-153,77.43-28.53,0-48.5-11-56.23-30.94-4.79-12.35-4.56-27.27.45-43.62a1.87,1.87,0,0,1,.07-.22l.21-.69s0-.08,0-.11a141.35,141.35,0,0,1,14.63-31.06,210.77,210.77,0,0,1,23.88-31.37.28.28,0,0,1,.09-.1c.39-.43.78-.87,1.18-1.3a.43.43,0,0,0,.09-.1,265.21,265.21,0,0,1,40.29-35.22l78.1-37.56a140.91,140.91,0,0,1,34.56-4.65c28.53,0,48.5,11,56.23,30.94C1963.72,1491,1963.43,1506.1,1958.25,1522.67Z"/><path class="cls-12" d="M1475.78,184.39C1218.28,188.8,977,290.8,794.66,472.67A991,991,0,0,0,704.24,576.2c-13.58,17.81-26.42,36.07-38.65,54.62-2.36,3.58-4.64,7.19-6.94,10.79,10.87,5,21.43,10.73,32.4,15.39,2.46-3.81,4.9-7.63,7.42-11.39q17.22-25.9,36.11-50.6c170.9-224.14,439.28-370.54,741.54-375.89a17.42,17.42,0,0,0,17.21-17.32v-.05A17.37,17.37,0,0,0,1475.78,184.39Z"/><path class="cls-13" d="M2339.25,1584.57q-11.76,21.51-24.57,42.36c-100.27,163.43-246.33,293.93-424.4,376.38-233.71,108.31-495.38,121.29-738.77,37.07a18.76,18.76,0,0,0-12-4.39c-240.36-92.52-432-271.12-540.89-504.57-83-177.84-110.52-371.75-81.82-561.34,2.08-13.77,4.52-27.5,7.19-41.2,7,4.27,14.21,8.26,20.88,13.34,3.55,2.72,7,5.66,10.69,8.11q-4.66,26.42-7.79,52.83c-50.21,422.49,190.83,841.05,604,1000.32a17.67,17.67,0,0,1,5.3,3.19,17.78,17.78,0,0,1,6.1,1c418.51,144.56,872.61-20.05,1106.58-375.4q20.58-31.15,38.81-64.33a17.22,17.22,0,0,1,17.2-8.88l.37,0A17.34,17.34,0,0,1,2339.25,1584.57Z"/><path class="cls-14" d="M1855.28,252.89c-14.11,7.93-29.85,9.1-45.44,4.85-40.13-11-49.57-43.22-42.06-71.35,7.55-28.29,33.76-52,72.81-41.33a57.78,57.78,0,0,1,35.16,27.34l-17.16,9.41a38.49,38.49,0,0,0-23.31-17.3c-26.09-7.12-42.66,9.25-47.44,27.35-4.73,17.95.52,39.45,27.22,46.74,9.42,2.57,21.12,1.61,30.16-3.55Z"/><path class="cls-15" d="M1944.53,260.16c-8.09,21.22-29.15,32.88-53.07,23.76s-31.71-31.79-23.62-53,29.31-32.84,52.78-23.89S1952.57,239.08,1944.53,260.16Zm-58.45-22.3c-4.27,11.21-1.54,24.24,11.77,29.32s24-2.83,28.3-14c4.22-11.06.55-24.79-11.71-29.47C1901.28,218.66,1890.3,226.8,1886.08,237.86Z"/><path class="cls-16" d="M2005.14,208.64l-46.59,101.67-17.6-8.06,46.59-101.68Z"/><path class="cls-17" d="M2040.81,226.13,1990.35,326l-17.27-8.74,50.45-99.82Z"/><path class="cls-18" d="M2035.2,312.91c-3.91,9-.23,19.43,11.59,26.48,6.18,3.69,15.68,6.19,21.9,4.5l4.41,17c-11.57,3.15-25.38-.24-35.69-6.39-23.36-13.94-28.63-36.65-15.67-58.35,12.29-20.61,35.16-27.09,57.14-14,22.68,13.52,28.47,36,9.21,62.31Zm45.1,8.1c4.15-9.45-.1-17.95-9.72-23.69-9.07-5.41-19.11-5.44-26.83,1.88Z"/><path class="cls-19" d="M2142.28,411.37c-12.65,1.84-22.48-1-31.9-7.9-18.45-13.52-25.68-35.87-9.13-58.46s40-22.43,58.49-8.91c9,6.62,14.11,14.31,16.07,26.26l-17.6,3.17a24,24,0,0,0-9.08-14.4c-10.59-7.75-24-5.68-32.14,5.42-8.89,12.13-5.35,24.64,4.45,31.82,5,3.69,11.11,6,17.82,4.92Z"/><path class="cls-20" d="M2167.74,447.89c-13.08-11.05-19.17-28.14-6.46-43.17l22-26-3.91-3.31,10.85-12.83,3.91,3.31,21.69-25.66,14.9,12.59L2209,378.46l5.62,4.75L2203.8,396l-5.74-4.85-22,26c-4.85,5.75-1.6,13.31,3,17.23Z"/><path class="cls-21" d="M2279.18,464.24l54.2-9.27,17.18,18.76-.71.65-77.94,10.83-34.11,31.23-14.26-15.58,34.11-31.23,18.73-75.5.71-.65,17,18.53Z"/><path class="cls-22" d="M2336.48,511.31l-33.14,24.6c-9.64,7.16-13.05,17.86-5.61,27.88,7.15,9.64,20.11,10.18,29.75,3l32.37-24,11.54,15.54-63.46,47.12-10.4-14,7.85-7.42c-11.29-1.78-18.86-5.53-25.44-14.39-11.25-15.16-8-34.7,11.63-49.29l33.27-24.71Z"/><path class="cls-23" d="M2422.62,577.44l-35,20.57c11.43,1.45,15.39,9.15,19.92,16.88,11.34,19.32,3.25,35.57-16.76,47.31l-35.88,21L2345,666.41l35.74-21c12.42-7.29,13.86-16.85,8.6-25.82-5.83-9.93-15.54-13.51-25.75-7.52l-37.53,22-9.88-16.83,96.59-56.68Z"/><path class="cls-24" d="M2425.76,810.86c-14.85-6.44-25.31-18.27-31.34-33.26C2378.87,739,2398.86,712,2425.81,701c27.1-11.08,61.82-4.54,77,33a57.75,57.75,0,0,1-.52,44.54l-17.87-8a38.46,38.46,0,0,0-.31-29c-10.1-25.08-33.17-28.39-50.47-21.24s-31.11,24.26-20.77,49.93c3.65,9.06,11.48,17.8,21.06,21.88Z"/><path class="cls-25" d="M2505.89,858.86l5.15,18.66-76,21-5.16-18.67,11.11-3.06c-10.14-1.85-17.74-12.53-20.23-21-6.38-22.48,2.9-43,29.58-50.34,26.22-7.24,44.76,6.4,50.74,28.65,2.81,10.18.71,21.22-5.65,27.62Zm-50.38-34.56c-14.5,4-20.36,16.41-16.92,28.9,8.18,29.62,54.3,16.88,46.12-12.73C2481.26,828,2470,820.3,2455.51,824.3Z"/><path class="cls-26" d="M2505.81,942.11c-1.91-10.06-9.5-20.83-23.8-18.1l-40.87,7.78-3.65-19.17L2515,897.86l3.66,19.17-9,1.71c10.72,4.14,13.66,11.89,15.16,19.75Z"/><path class="cls-27" d="M2453.56,1019.3l41-4.5c11.93-1.31,20.28-8.82,18.92-21.23-1.31-11.92-10.63-19.11-22.55-17.8l-41.67,4.56-2.11-19.24,78.56-8.61,2.05,18.6-9.07,1c8.66,7.1,11.92,14.79,13,24.65,2,18.45-10.19,34.76-34.84,37.46l-41.2,4.51Z"/><path class="cls-28" d="M2535.8,1070.08l-79.14,3-.75-19.5,79.14-3ZM2567,1049.2l-18.38.7.74,19.34,18.39-.7Z"/><path class="cls-29" d="M2534.26,1173,2456,1137l.66-21.11L2537,1084.6l-.67,21.27L2510,1115.92,2476.32,1127l32.57,13,26,11.7Z"/><path class="cls-30" d="M2524.52,1249.22l-2.61,19.19-78.16-10.65,2.61-19.18,11.42,1.55c-8.59-5.69-11.37-18.5-10.34-27.24,3-23.17,19.59-38.35,47-34.62,26.95,3.68,38.62,23.51,35.35,46.32-1.42,10.47-7.69,19.78-16.07,23.17Zm-32.69-51.6c-14.91-2-25.19,7.06-26.94,19.91-4.14,30.43,43.26,36.89,47.41,6.45C2514.05,1211.14,2506.73,1199.65,2491.83,1197.62Z"/><path class="cls-31" d="M2545.57,1314.17l-109.36-23.41,4.06-18.93,109.35,23.41Z"/><path class="cls-32" d="M1128.31,1359.81a8.22,8.22,0,0,0-2.19,2.17l-.7,1.27c-5,1.18-13.3,1.26-18.39,1.31h-.44c-1.9,0-3.47,0-4.51.11-10.72.71-21.31.81-29.32.81-2.46,0-4.91,0-7.37,0-21.51-.11-45-2.11-71.79-6.09-18.61-2.77-38.52-7.2-62.67-13.95l-1.49-.41c-7.3-2-24.39-6.68-26-14.9-1.05-5.47,5.49-11.74,11.17-16,10.52-8,22.94-12.76,32.6-16.06a7.28,7.28,0,0,0,2.63-1.59,559.76,559.76,0,0,0,80.29-4.86c-.5,1.17-1,2.35-1.39,3.53-3.79,10.49-3.58,19.94.61,28.17l-70.16-4.8h-.31a7.11,7.11,0,0,0-7.32,7,7.78,7.78,0,0,0,7.26,8.23l80.86,5.53h.23a7.77,7.77,0,0,0,3.83-1.07c9.54,5.89,22.35,9.36,34.74,9.36,1,0,2,0,3-.07,15.27-.64,30.52-4.81,45.33-8.86l.37-.1c5.14-1.41,10.45-2.86,15.57-4.1l.09,0C1133.43,1342.3,1128.54,1350.83,1128.31,1359.81Z"/><path class="cls-33" d="M740.65,1201.85c.18-1.25.72-5.08,7.71-7.89,8.17-3.28,18.86-4,29.41-4.8,4.84-.35,9.4-.67,13.64-1.26l56.69-7.8a7.32,7.32,0,0,0,1.76-.49,1002.59,1002.59,0,0,0,102.59,10.23,45.39,45.39,0,0,0-2.24,11.9c-.54,10.06,2.31,18.72,8.46,25.81-12-.09-24.24-1.69-35.09-3.11-4.32-.57-8.62-1.13-12.91-1.62l-67.91-7.73-.74,0a6.84,6.84,0,0,0-6.87,6.65,8.07,8.07,0,0,0,7.09,8.6l83.87,9.58c11.8,1.39,22.94,2.7,34.45,2.7a118.94,118.94,0,0,0,18.54-1.36c19,7.61,43.65,8.89,60.57,9.18,10.06.19,20.07.15,30,0a96.94,96.94,0,0,0-30.3,25.53,7.8,7.8,0,0,0-4-.45,538,538,0,0,1-78.84,5.89,492,492,0,0,1-129.09-16.93,226.56,226.56,0,0,1-41.8-16.24c-7.39-3.68-14.84-8.56-24.15-15.81C754.12,1226.66,739.28,1211.57,740.65,1201.85Z"/><path class="cls-34" d="M636,1053c5.18-7.91,20-9.1,29.75-9.89,1.47-.12,2.82-.23,4-.36a232.45,232.45,0,0,1,23.7-1.17,350.31,350.31,0,0,1,36,2.05,6.86,6.86,0,0,0,2.3-.11,568.59,568.59,0,0,0,161.86,35.63c-5,10.32-5.2,21.68-.56,34.57l.45,1.19a1004.17,1004.17,0,0,1-137.39-28,7.58,7.58,0,0,0-9.38,6.48,7.28,7.28,0,0,0,5.39,8.24,1025.24,1025.24,0,0,0,150.24,29.78,8,8,0,0,0,1.61,0c18.67,19.89,51.46,23.47,79.8,25.43-10.24,5.25-18,11.25-23.49,18.18a8.27,8.27,0,0,0-1-.11c-77.51-3.23-151.27-15-219.22-34.86-38-11.15-67.18-26.91-89.2-48.19a60.08,60.08,0,0,1-15.27-24.44C633.49,1061.41,633.63,1056.55,636,1053Z"/><path class="cls-35" d="M927.54,1050.14c-9.34,4.33-17,9.18-22.88,14.51-77.65-4.07-152.76-24.43-223.27-60.52a517.44,517.44,0,0,1-75.18-47.42q-10.62-8-21.12-16.66l-.91-.75c-6-5-12-10.4-17.85-15.73a75.72,75.72,0,0,1-12-12.8c4.33-15.18,11.83-15.18,14.34-15.18a19.33,19.33,0,0,1,5.58.92L599.54,899l26,2.53,16.73,1.62c59.07,33,127.49,59.82,198.13,77.62-.6,1.36-1.13,2.72-1.59,4.1-4.71,14.2,2.15,26.76,9.56,35.36a540.48,540.48,0,0,1-110.3-39.36,7.63,7.63,0,0,0-3.33-.77,8.2,8.2,0,0,0-7.83,6.28,6.83,6.83,0,0,0,3.85,7.86,557.31,557.31,0,0,0,150.64,48.34l1.4.07C896.7,1047,912.29,1048.7,927.54,1050.14Z"/><path class="cls-36" d="M1234.37,1146.78c-51.09-27.84-104.16-50.52-149.33-69-59.1-24.24-108.87-38.44-156.61-44.66-2.81-.36-5.61-.7-8.4-1l-.51-.06c-16.23-1.94-31.56-3.79-46.37-10.35-12-5.29-18.64-14.5-18.33-25.26.36-12.34,9.61-24,23-29,11.66-4.37,25.78-6.4,44.43-6.4,10.3,0,20.48.6,30.44,1.19l6,.36H959a7.28,7.28,0,0,0,3.06-.62c119.39,48.82,253.54,113.71,345.46,224.49,1.57,5.22,3.06,10.56,4.51,15.79C1291.84,1182.26,1266.86,1164.49,1234.37,1146.78Z"/><path class="cls-37" d="M1230.17,878.74h0l-2.42-2.42a16.85,16.85,0,0,1-8.47,11l-.33.41c-.18.24-.36.48-.56.7l-.21.23a18.28,18.28,0,0,1-3,2.64l-.08,0c-.12.09-.25.16-.38.24a16.29,16.29,0,0,1-5.45,8.79c-.52,7-6.24,12.87-12.94,14.48-.24,8.38-8,15.34-16.19,15.54a18.41,18.41,0,0,1,.36,2.89,14.1,14.1,0,0,1-.44,4.06,389.38,389.38,0,0,0-88.5-74.08c-23.73-14.45-44.24-24.38-64.54-31.27l-.58-.19c-9.28-3.15-18.82-6.38-28.37-6.38h-.75c-.93,0-1.62-.05-2.3-.05a42.17,42.17,0,0,0-16.69,3.47c-7.78,11.24-9.6,21-5.56,29.77a7.74,7.74,0,0,1,.54,1A30.54,30.54,0,0,0,979,867.2c29.2,31,68.75,51.61,107,71.5l13.13,6.85c18.12,9.54,34.92,19.11,50.58,28.83a17.25,17.25,0,0,1-9.79,4.24,17.12,17.12,0,0,1-3.09,3.6l3.05,3c-15.41-8.81-31.15-17-46.51-25.09-27.08-14.18-54.94-28.76-80.55-46.19l-1.26-.86c-12.41-8.44-38.08-25.88-51.24-45.16-17.21-10.68-33.94-16.36-49.73-16.91-1.8-.06-3.92-.1-6.26-.1-20.94,0-36.27,4-43.16,11.42-3.48,3.71-5,8.23-4.62,13.82,2,29.94,31.87,40.91,58.26,50.59,4.24,1.55,8.35,3.06,12.21,4.59,44.83,17.84,96.82,38.91,146.73,63.43,95.68,47,166.67,96.61,222.23,155.5-1.6-4.8-3.15-9.29-4.66-13.59l40.86,40.86-33.06,33.06c-37.52-35.92-86.36-58.67-133.88-80.78l-3.78-1.76c-66.13-30.8-131.2-59.61-200-73.75-2.23-.46-4.69-.88-7.57-1.31a7.26,7.26,0,0,1-4.87,5l-3.1,1c-11.67,3.85-24.89,8.21-32.69,17.07a31.67,31.67,0,0,0-8.11,23.39,33,33,0,0,0,12.18,22.76c18.62,15.56,43.17,17.32,66.92,19l.62,0c4.82.35,9.6.69,14.31,1.16,39.43,3.88,91.06,10.22,140.76,25,52.72,15.67,98.46,37.63,136.82,65.58L1266,1243.83c-62.41-44.61-145.59-72.81-248.56-84.13a7.15,7.15,0,0,1-2.33,1.19c-26.34,8.17-43.13,18.39-48.52,29.53a19.07,19.07,0,0,0-.41,15.92,38.17,38.17,0,0,0,15.63,19,7.86,7.86,0,0,1,8.13,4c14.88,5.78,33.83,5.83,49.12,5.87h2.28c12.2,0,24.59-.36,36.58-.7,10.8-.32,24.26-.71,37-.71,21.77,0,39.42,1.15,55.56,3.63a293.72,293.72,0,0,1,78.15,23.8l-10.88,10.88q-11.57-5-23.16-8.69c-33.43-10.68-66.18-12.67-94-13.12a7.33,7.33,0,0,1-5,2.2c-19.66.82-55.51,15.07-66.91,35.51-6.32,11.34-7.12,22.13-2.28,30.39,5.87,10,19.33,15.42,34.79,13.84,16.57-1.74,33-6,49-10,16.82-4.29,34.1-8.7,51.71-10.36q8.67-.81,17.26-1.13L1178.76,1331c-17.06,7.55-34.4,19.08-36.5,31a13.72,13.72,0,0,0,.1,5.38l-51.8,51.8-76.1,76.1c36.82-27.15,79.93-44.78,116.21-44.78,28.53,0,48.5,11,56.23,30.94a56.74,56.74,0,0,1,3.13,26.07h9l330-330Z"/><path class="cls-38" d="M975,813.94a43.1,43.1,0,0,0-14.72,10.38,31.82,31.82,0,0,0-6.17,9.48A1177,1177,0,0,1,713.76,729.36q-6.72-3.86-13.38-7.81a7.47,7.47,0,0,0-3.75-1,7.89,7.89,0,0,0-7.37,5.81,7.29,7.29,0,0,0,3.41,8.39q6.41,3.79,12.87,7.51a1191.92,1191.92,0,0,0,207.14,94.13,131.94,131.94,0,0,0-24.64.24c-13.17,1.36-25.7,6-33.88,12.54-57.29-7.62-112.53-32-168.15-74.4q-10-7.65-20.07-16.06l-.28-.23a6.79,6.79,0,0,0-5.47-5l-.44-.09c-6.06-5.22-11.38-9.94-16.23-14.41-29.39-27.13-56-57.39-78.63-83.63-28.17-32.67-57.41-70.78-50.6-111.83A1627.05,1627.05,0,0,0,712.78,685.45q10.92,6.64,22,13.09A1625.47,1625.47,0,0,0,975,813.94Z"/><path class="cls-39" d="M906.71,946.23c-27,1.83-45.88,8.76-57.38,21a769.69,769.69,0,0,1-214.56-88.61q-10.93-6.6-21.68-13.58-18.95-12.28-37.27-25.75c-23.11-17-42.68-33.73-59.82-51.25a217.45,217.45,0,0,1-23.54-29.18c-2.81-4.21-5.49-8.67-7.86-13l-5-10.69c-1.59-3.76-1.71-6.69-.36-8.72,1.67-2.52,6.76-5.53,21.53-5.53h1.62c45.71,20,96.17,35.66,149.95,46.48q2.94,2.52,5.88,5,10,8.37,20.16,16c53.27,40.12,108.84,65.12,165.62,74.46a26.23,26.23,0,0,0-1.93,7.23c-1.76,15.42,2.64,28.84,13.42,40.7a1403.87,1403.87,0,0,1-162.94-77.62,7.33,7.33,0,0,0-3.65-1,8,8,0,0,0-7.54,6,7.14,7.14,0,0,0,3.55,8.21A1421.08,1421.08,0,0,0,906.71,946.23Z"/></svg>